<?xml version="1.0"?>
<svg version="1.1" xmlns="http://www.w3.org/2000/svg" width="100" height="120" style=""><path fill="#4d0e8c" d="M17.7685546875,82.412109375l0-6.943359375q0-7.20703125,0.24169921875-14.30419921875t0.41748046875-14.30419921875q0-1.3623046875-0.087890625-3.0322265625q-0.0439453125-0.4833984375-0.0439453125-0.9228515625q0-1.0986328125,0.17578125-2.1533203125q0.2197265625-1.40625,1.07666015625-2.4169921875t2.83447265625-1.0107421875q1.6259765625,0,2.48291015625,0.3515625t1.20849609375,1.03271484375t0.3955078125,1.7138671875t0.0439453125,2.39501953125q0,7.294921875-0.17578125,14.6337890625q-0.1318359375,4.8779296875-0.1318359375,9.755859375q0,2.4609375,0.0439453125,4.921875q0.087890625,7.294921875,0.68115234375,14.58984375t1.99951171875,14.4140625q4.39453125-0.17578125,8.7890625-0.439453125t8.7890625-0.263671875q0.439453125,0,1.25244140625,0.087890625t1.6259765625,0.3076171875t1.38427734375,0.5712890625t0.5712890625,1.0107421875q0,0.439453125-0.3955078125,0.7470703125t-0.7470703125,0.4833984375l-0.087890625,0q-0.703125,0.3515625-2.79052734375,0.68115234375t-4.74609375,0.50537109375t-5.5810546875,0.3076171875t-5.4931640625,0.2197265625t-4.46044921875,0.1318359375t-2.3291015625,0.0439453125l-0.3955078125,0q-1.0546875,0-2.373046875-0.3515625q-1.58203125-0.439453125-1.9775390625-1.7138671875q-0.791015625-3.251953125-1.25244140625-6.74560546875t-0.703125-7.09716796875t-0.24169921875-7.20703125z M54.975732421875,42.4658203125q0-0.615234375,0.85693359375-0.94482421875t1.12060546875-0.32958984375l1.6259765625-0.263671875q1.6259765625-0.263671875,3.2958984375-0.46142578125t3.251953125-0.37353515625q5.5810546875-0.703125,11.162109375-1.38427734375t11.25-0.68115234375q0.439453125,0,1.20849609375,0.0439453125t1.5380859375,0.24169921875t1.318359375,0.54931640625t0.54931640625,0.966796875q0,0.439453125-0.41748046875,0.76904296875t-0.98876953125,0.50537109375t-1.16455078125,0.2197265625t-0.94482421875,0.0439453125l-0.76904296875,0t-0.76904296875-0.17578125q-2.3291015625,0-4.59228515625,0.2197265625t-4.59228515625,0.3955078125q0.615234375,0.703125,0.6591796875,1.9775390625t0.087890625,2.197265625q0,15.556640625,0.2197265625,30.9375t0.3955078125,31.0693359375l0,0.087890625q-1.4501953125,1.2744140625-2.48291015625,1.6259765625t-2.08740234375,0.3515625q-1.0107421875,0-2.04345703125-0.37353515625t-2.48291015625-1.60400390625l0-0.087890625l0.3515625-34.4970703125q0-3.427734375-0.087890625-7.55859375t-0.087890625-8.37158203125t0.1318359375-8.19580078125t0.703125-6.8994140625q-2.5927734375,0.263671875-5.4931640625,0.791015625q-2.5048828125,0.439453125-4.7900390625,0.439453125l-0.791015625,0q-0.17578125,0-1.03271484375,0.0439453125t-1.7578125-0.0439453125t-1.6259765625-0.3515625t-0.72509765625-0.87890625z"/><path fill="#2685c9" d=""/></svg>
